<?xml version="1.0" encoding="utf-8"?>
<!-- Generator: Adobe Illustrator 16.0.0, SVG Export Plug-In . SVG Version: 6.00 Build 0)  -->
<!DOCTYPE svg PUBLIC "-//W3C//DTD SVG 1.1//EN" "http://www.w3.org/Graphics/SVG/1.1/DTD/svg11.dtd">
<svg version="1.1" id="Capa_1" xmlns="http://www.w3.org/2000/svg" xmlns:xlink="http://www.w3.org/1999/xlink" x="0px" y="0px"
	 width="339.784px" height="165.396px" viewBox="0 0 339.784 165.396" enable-background="new 0 0 339.784 165.396"
	 xml:space="preserve">
<path fill="#00417F" d="M339.744,116.322c-0.046-0.061-0.105-0.083-0.187-0.083c-0.081,0.001-0.955,0.004-0.982,0.003
	c-0.027-0.001-0.097-0.007-0.154,0.071c-0.047,0.063-0.045,0.148-0.045,0.257c0,0.109-0.008,37.563-0.007,46.431
	c0,0.142,0.034,0.63-0.156,0.784c-0.268,0.219-0.601,0.171-0.716,0.171H82.311l1.87,1.439c0,0,254.938-0.01,255.118-0.011
	c0.269-0.001,0.337-0.101,0.337-0.101s0.144-0.065,0.144-0.378c0-5.034,0.014-48.275,0-48.37
	C339.773,116.421,339.79,116.382,339.744,116.322"/>
<path fill="#00417F" d="M12.651,100.296C2.028,57.887,29.694,15.352,78.746,0.629c-1.342,0.278-7.286,0.941-11.048,1.885
	C20.545,14.326-9.14,56.924,2.548,102.654c9.443,36.938,46.105,64.113,85.916,62.688c7.176-0.258,6.725-0.806,12.896-1.668
	c1.373-0.192,10.936-2.827,12.256-3.211C64.617,171.766,23.272,142.704,12.651,100.296"/>
<polygon fill="#00417F" points="26.018,61.415 36.202,61.415 36.202,78.787 54.989,78.787 54.989,61.415 65.174,61.415 
	65.174,105.307 54.989,105.307 54.989,87.688 36.202,87.688 36.202,105.307 26.018,105.307 "/>
<polygon fill="#00417F" points="73.635,61.415 83.818,61.415 83.818,96.531 106.899,96.531 106.899,105.307 73.635,105.307 "/>
<path fill="#00417F" d="M108.858,84.11v-0.126c0-12.477,9.922-22.695,24.14-22.695c7.994,0.004,12.896,2.917,15.821,7.41
	c2.162,3.319,2.5,6.853,2.765,7.651h-11.314c-0.097-2.386-2.705-6.158-7.336-6.158c-7.801,0-13.424,6.146-13.424,13.664v0.128
	c0,7.526,5.486,13.793,13.424,13.793c5.23,0,9.269-0.065,12.874-3.088c0.042-0.036,0.033-0.036,0.085-0.073
	c0.054-0.037,0.041,0.088,0.041,0.088l-0.174,9.522c-2.566,1.636-8.856,2.603-13.938,2.411
	C118.206,106.12,108.858,96.71,108.858,84.11"/>
<path fill="#D0B610" d="M13.151,50.012c-17.843,41.802,1.578,90.156,43.383,108.001c41.805,17.846,90.16-1.582,108.003-43.385
	c17.843-41.805-1.581-90.157-43.385-107.999C79.35-11.215,30.994,8.207,13.151,50.012 M159.811,112.614
	c-16.729,39.194-62.066,57.406-101.261,40.675C19.355,136.562,1.141,91.221,17.874,52.03C34.603,12.829,79.939-5.378,119.138,11.352
	C158.333,28.081,176.541,73.416,159.811,112.614"/>
<path fill="#D0B610" d="M110.817,149.776c0-1.688-0.592-1.664-1.326-1.664H67.022c-0.731,0-1.324-0.023-1.324,1.664
	c0,1.688,0.593,1.666,1.324,1.666h42.469C110.225,151.442,110.817,151.464,110.817,149.776"/>
<path fill="#D0B610" d="M125.009,141.259c0-1.687-0.819-1.664-1.826-1.664H54.425c-1.013,0-1.83-0.023-1.83,1.664
	s0.817,1.665,1.83,1.665h68.759C124.19,142.924,125.009,142.946,125.009,141.259"/>
<path fill="#D0B610" d="M135.521,132.603c0-1.685-1.043-1.661-2.338-1.661H44.425c-1.297,0-2.345-0.024-2.345,1.661
	c0,1.687,1.048,1.667,2.345,1.667h88.758C134.479,134.269,135.521,134.29,135.521,132.603"/>
<path fill="#D0B610" d="M143.914,124.118c0-1.685-1.222-1.659-2.75-1.659H36.438c-1.52,0-2.75-0.026-2.75,1.659
	c0,1.692,1.23,1.666,2.75,1.666h104.726C142.692,125.783,143.914,125.81,143.914,124.118"/>
<path fill="#D0B610" d="M152.575,115.429c0-1.705-1.424-1.681-3.191-1.681H27.459c-1.769,0-3.197-0.024-3.197,1.681
	c0,1.711,1.429,1.685,3.197,1.685h121.925C151.151,117.113,152.575,117.14,152.575,115.429"/>
<path fill="#D0B610" d="M110.817,16.449c0,1.684-0.592,1.662-1.326,1.662H67.022c-0.731,0-1.324,0.022-1.324-1.662
	c0-1.688,0.593-1.666,1.324-1.666h42.469C110.225,14.784,110.817,14.761,110.817,16.449"/>
<path fill="#D0B610" d="M125.009,24.967c0,1.684-0.819,1.661-1.826,1.661H54.425c-1.013,0-1.83,0.022-1.83-1.661
	c0-1.688,0.817-1.666,1.83-1.666h68.759C124.19,23.301,125.009,23.279,125.009,24.967"/>
<path fill="#D0B610" d="M135.521,33.622c0,1.685-1.043,1.66-2.338,1.66H44.425c-1.297,0-2.345,0.024-2.345-1.66
	c0-1.688,1.048-1.665,2.345-1.665h88.758C134.479,31.957,135.521,31.934,135.521,33.622"/>
<path fill="#D0B610" d="M143.914,42.105c0,1.687-1.222,1.661-2.75,1.661H36.438c-1.52,0-2.75,0.026-2.75-1.661
	c0-1.688,1.23-1.666,2.75-1.666h104.726C142.692,40.439,143.914,40.417,143.914,42.105"/>
<path fill="#D0B610" d="M152.575,50.796c0,1.706-1.424,1.679-3.191,1.679H27.459c-1.769,0-3.197,0.026-3.197-1.679
	c0-1.709,1.429-1.685,3.197-1.685h121.925C151.151,49.111,152.575,49.086,152.575,50.796"/>
<rect x="181.986" y="121.146" fill="#00417F" width="2.765" height="12.569"/>
<polygon fill="#00417F" points="198.293,128.887 192.402,121.147 189.854,121.147 189.854,133.715 192.583,133.715 192.583,125.725 
	198.671,133.715 201.022,133.715 201.022,121.147 198.293,121.147 "/>
<path fill="#00417F" d="M211.963,128.867h2.781v1.797c-0.697,0.499-1.596,0.753-2.602,0.753c-2.227,0-3.808-1.69-3.808-3.987v-0.034
	c0-2.138,1.598-3.916,3.611-3.916c1.454,0,2.316,0.467,3.286,1.276l1.741-2.104c-1.311-1.112-2.675-1.722-4.938-1.722
	c-3.807,0-6.591,2.926-6.591,6.5v0.036c0,3.717,2.693,6.466,6.609,6.466c2.3,0,4.076-0.899,5.368-1.994v-5.459h-5.459V128.867z"/>
<polygon fill="#00417F" points="224.789,128.616 230.713,128.616 230.713,126.157 224.789,126.157 224.789,123.606 231.522,123.606 
	231.522,121.147 222.039,121.147 222.039,133.715 231.614,133.715 231.614,131.256 224.789,131.256 "/>
<polygon fill="#00417F" points="244.473,128.887 238.584,121.147 236.036,121.147 236.036,133.715 238.763,133.715 238.763,125.725 
	244.852,133.715 247.204,133.715 247.204,121.147 244.473,121.147 "/>
<rect x="252.306" y="121.146" fill="#00417F" width="2.769" height="12.569"/>
<polygon fill="#00417F" points="262.923,128.616 268.847,128.616 268.847,126.157 262.923,126.157 262.923,123.606 269.656,123.606 
	269.656,121.147 260.174,121.147 260.174,133.715 269.746,133.715 269.746,131.256 262.923,131.256 "/>
<path fill="#00417F" d="M284.655,125.329v-0.034c0-1.184-0.378-2.175-1.079-2.874c-0.827-0.827-2.064-1.274-3.664-1.274h-5.746
	v12.568h2.767v-4.021h2.172l2.694,4.021h3.233l-3.071-4.487C283.558,128.634,284.655,127.36,284.655,125.329 M281.853,125.473
	c0,1.059-0.772,1.78-2.12,1.78h-2.8v-3.611h2.745c1.348,0,2.175,0.612,2.175,1.795V125.473z"/>
<polygon fill="#00417F" points="289.508,120.158 291.588,120.158 294.033,118.362 291.679,117.337 "/>
<rect x="289.235" y="121.146" fill="#00417F" width="2.768" height="12.569"/>
<path fill="#00417F" d="M303.964,121.056h-2.551l-5.386,12.66h2.82l1.148-2.819h5.314l1.15,2.819h2.892L303.964,121.056z
	 M300.985,128.455l1.668-4.078l1.671,4.078H300.985z"/>
<polygon fill="#00417F" points="328.589,121.147 325.536,126.191 322.538,121.147 319.305,121.147 324.137,128.76 324.137,133.715 
	326.902,133.715 326.902,128.706 331.732,121.147 "/>
<path fill="#00417F" d="M187.839,152.938c-2.153,0-3.646-1.797-3.646-3.953v-0.035c0-2.155,1.527-3.916,3.646-3.916
	c1.259,0,2.245,0.541,3.217,1.419l1.76-2.029c-1.167-1.147-2.588-1.938-4.956-1.938c-3.86,0-6.556,2.926-6.556,6.5v0.04
	c0,3.606,2.746,6.463,6.446,6.463c2.425,0,3.861-0.863,5.154-2.245l-1.759-1.779C190.157,152.363,189.278,152.938,187.839,152.938"
	/>
<path fill="#00417F" d="M200.897,142.486c-3.878,0-6.697,2.926-6.697,6.499v0.039c0,3.573,2.784,6.464,6.664,6.464
	c3.878,0,6.698-2.927,6.698-6.503v-0.034C207.563,145.375,204.775,142.486,200.897,142.486 M204.67,149.023
	c0,2.153-1.542,3.914-3.772,3.914c-2.225,0-3.806-1.797-3.806-3.953v-0.034c0-2.156,1.544-3.917,3.772-3.917
	c2.227,0,3.806,1.797,3.806,3.952V149.023z"/>
<polygon fill="#00417F" points="218.465,150.44 212.574,142.701 210.023,142.701 210.023,155.273 212.753,155.273 212.753,147.279 
	218.842,155.273 221.195,155.273 221.195,142.701 218.465,142.701 "/>
<path fill="#00417F" d="M229.314,147.748c-2.175-0.556-2.714-0.827-2.714-1.652v-0.037c0-0.609,0.559-1.096,1.617-1.096
	c1.061,0,2.157,0.469,3.271,1.239l1.436-2.081c-1.276-1.027-2.84-1.6-4.67-1.6c-2.565,0-4.398,1.511-4.398,3.79v0.037
	c0,2.495,1.633,3.197,4.164,3.843c2.104,0.539,2.533,0.898,2.533,1.598v0.036c0,0.736-0.683,1.184-1.814,1.184
	c-1.435,0-2.619-0.592-3.752-1.525l-1.635,1.958c1.509,1.349,3.429,2.011,5.335,2.011c2.71,0,4.614-1.402,4.614-3.898v-0.034
	C233.301,149.327,231.865,148.412,229.314,147.748"/>
<polygon fill="#00417F" points="234.545,145.25 238.367,145.25 238.367,155.273 241.133,155.273 241.133,145.25 244.957,145.25 
	244.957,142.701 234.545,142.701 "/>
<path fill="#00417F" d="M257.566,146.885v-0.036c0-1.185-0.377-2.173-1.075-2.875c-0.826-0.825-2.064-1.273-3.664-1.273h-5.746
	v12.572h2.764v-4.025h2.175l2.691,4.025h3.236l-3.074-4.489C256.471,150.19,257.566,148.916,257.566,146.885 M254.768,147.029
	c0,1.059-0.773,1.777-2.12,1.777h-2.803v-3.61h2.748c1.348,0,2.175,0.61,2.175,1.798V147.029z"/>
<path fill="#00417F" d="M268.059,149.903c0,1.992-1.024,3.018-2.711,3.018c-1.688,0-2.714-1.063-2.714-3.11v-7.109h-2.766v7.183
	c0,3.699,2.067,5.586,5.441,5.586c3.377,0,5.515-1.87,5.515-5.676v-7.093h-2.766V149.903z"/>
<path fill="#00417F" d="M279.626,152.938c-2.155,0-3.646-1.797-3.646-3.953v-0.035c0-2.155,1.524-3.916,3.646-3.916
	c1.256,0,2.243,0.541,3.213,1.419l1.761-2.029c-1.166-1.147-2.586-1.938-4.957-1.938c-3.86,0-6.553,2.926-6.553,6.5v0.04
	c0,3.606,2.747,6.463,6.446,6.463c2.425,0,3.86-0.863,5.152-2.245l-1.757-1.779C281.941,152.363,281.062,152.938,279.626,152.938"/>
<path fill="#00417F" d="M292.522,152.938c-2.154,0-3.646-1.797-3.646-3.953v-0.035c0-2.155,1.526-3.916,3.646-3.916
	c1.256,0,2.245,0.541,3.215,1.419l1.759-2.029c-1.167-1.147-2.586-1.938-4.955-1.938c-3.86,0-6.555,2.926-6.555,6.5v0.04
	c0,3.606,2.749,6.463,6.444,6.463c2.428,0,3.864-0.863,5.154-2.245l-1.757-1.779C294.838,152.363,293.96,152.938,292.522,152.938"/>
<rect x="299.926" y="142.701" fill="#00417F" width="2.765" height="12.572"/>
<polygon fill="#00417F" points="315.367,139.737 313.017,138.714 310.844,141.534 312.927,141.534 "/>
<path fill="#00417F" d="M311.976,142.486c-3.88,0-6.697,2.926-6.697,6.499v0.039c0,3.573,2.783,6.464,6.661,6.464
	c3.88,0,6.698-2.927,6.698-6.503v-0.034C318.638,145.375,315.853,142.486,311.976,142.486 M315.746,149.023
	c0,2.153-1.543,3.914-3.771,3.914s-3.806-1.797-3.806-3.953v-0.034c0-2.156,1.544-3.917,3.77-3.917c2.228,0,3.807,1.797,3.807,3.952
	V149.023z"/>
<polygon fill="#00417F" points="329.54,142.701 329.54,150.44 323.651,142.701 321.102,142.701 321.102,155.273 323.832,155.273 
	323.832,147.279 329.919,155.273 332.271,155.273 332.271,142.701 "/>
</svg>
